/vscmnt/brussel_pixiu_data/_data_brussel/112/vsc11236/PredSimResults/SUBJ11mtu3D/weighted-LRposFixed/trackIG/worker_05.mot
version=1
nRows=6
nColumns=50
inDegrees=yes
endheader
                time	         pelvis_tilt	         pelvis_list	     pelvis_rotation	           pelvis_tx	           pelvis_ty	           pelvis_tz	       hip_flexion_r	     hip_adduction_r	      hip_rotation_r	        knee_angle_r	       ankle_angle_r	         mtp_angle_r	       hip_flexion_l	     hip_adduction_l	      hip_rotation_l	        knee_angle_l	       ankle_angle_l	         mtp_angle_l	    lumbar_extension	      lumbar_bending	     lumbar_rotation	 ercspn_r/activation	 intobl_r/activation	 extobl_r/activation	    abd_r/activation	    add_r/activation	hamstrings_r/activation	bifemsh_r/activation	glut_max_r/activation	iliopsoas_r/activation	rect_fem_r/activation	  vasti_r/activation	gastroc_r/activation	 soleus_r/activation	tib_ant_r/activation	 ercspn_l/activation	 intobl_l/activation	 extobl_l/activation	    abd_l/activation	    add_l/activation	hamstrings_l/activation	bifemsh_l/activation	glut_max_l/activation	iliopsoas_l/activation	rect_fem_l/activation	  vasti_l/activation	gastroc_l/activation	 soleus_l/activation	tib_ant_l/activation	
          0.00000000	         -5.91530473	         -5.01728223	          8.25438638	          0.00000000	          0.94291766	         -0.01823225	         30.33597177	          1.58399470	         -4.07371317	         -4.35602180	          5.24506890	          0.22906138	        -11.27621761	         -5.35201787	          4.99064623	         -7.26537250	         13.03609647	         25.61998681	         -3.60062335	          3.07514505	         -2.04084949	          0.07970001	          0.12127342	          0.02634833	          0.01240110	          0.12553918	          0.04570869	          0.16688082	          0.02771468	          0.08602057	          0.01286972	          0.01000000	          0.01033055	          0.00999999	          0.27712752	          0.04000138	          0.00999999	          0.01000000	          0.05530105	          0.02868668	          0.02543501	          0.12855554	          0.05593475	          0.45203489	          0.01000000	          0.00999999	          0.35709269	          0.26515937	          0.00999999	
          0.01440661	         -6.05336856	         -4.82477347	          8.27280358	          0.01743411	          0.94067702	         -0.01730340	         30.38575737	          1.59080445	         -4.06254181	         -5.95688977	          4.83435357	          0.18986880	        -11.54766259	         -5.22973017	          4.59074742	         -8.50614816	         12.64161035	         27.50618137	         -3.29120365	          3.32210294	         -2.21954663	          0.06426851	          0.11949389	          0.02124677	          0.01000000	          0.13840934	          0.05364931	          0.13456937	          0.06791939	          0.06936527	          0.01037788	          0.00999999	          0.01717013	          0.01240109	          0.30307708	          0.06333909	          0.00999999	          0.01000000	          0.04459366	          0.05913064	          0.02436580	          0.10366462	          0.04510467	          0.45383598	          0.01000001	          0.01000000	          0.32976019	          0.25280791	          0.00999999	
          0.02881321	         -6.16952522	         -4.62368359	          8.23918340	          0.03517549	          0.93885570	         -0.01627813	         30.22158104	          1.58883977	         -4.06704309	         -7.26592830	          4.27816998	          0.17970239	        -11.62422487	         -5.08386180	          4.16665832	        -10.15599870	         12.10678713	         29.50616615	         -2.97806731	          3.57317546	         -2.37812041	          0.07553000	          0.09635749	          0.01713297	          0.07344680	          0.15299498	          0.05659959	          0.10851406	          0.08192446	          0.05593476	          0.00999999	          0.00999999	          0.01384565	          0.00999999	          0.34388545	          0.08430930	          0.00999999	          0.01000000	          0.03595944	          0.05300959	          0.02487972	          0.08359308	          0.03637150	          0.44192860	          0.01000002	          0.01367484	          0.29758165	          0.23540622	          0.00999999	
          0.04321982	         -6.26303684	         -4.41469146	          8.15593997	          0.05296314	          0.93770004	         -0.01515583	         29.91689033	          1.58926889	         -4.11008415	         -8.35948140	          3.65270016	          0.14015810	        -11.42476885	         -4.91427673	          3.72505032	        -12.30870942	         11.36186843	         31.62574822	         -2.68413520	          3.82828528	         -2.51108274	          0.08083398	          0.07770075	          0.01381568	          0.11351204	          0.17365272	          0.05168415	          0.08750357	          0.10598207	          0.04510468	          0.01000000	          0.01000001	          0.01165476	          0.01000200	          0.37059344	          0.11071445	          0.00999999	          0.01000000	          0.02899697	          0.06255164	          0.02537437	          0.06740779	          0.02932925	          0.41655998	          0.01000002	          0.01240108	          0.23996390	          0.19287254	          0.00999999	
          0.05762643	         -6.33147726	         -4.20529384	          8.02702393	          0.07060113	          0.93730901	         -0.01395686	         29.54587244	          1.59616405	         -4.19751428	         -9.40778149	          3.21130530	          0.11117884	        -10.89408532	         -4.72867135	          3.25819645	        -15.03510635	         10.39806283	         33.76668308	         -2.42260599	          4.09617621	         -2.61293339	          0.07685216	          0.06265633	          0.01114069	          0.12888080	          0.17112270	          0.05128575	          0.07056113	          0.10395523	          0.03637151	          0.01000000	          0.05254178	          0.01000000	          0.01000000	          0.39174834	          0.12573500	          0.00999999	          0.01000000	          0.02338258	          0.08008383	          0.03108425	          0.05435630	          0.02365052	          0.37268762	          0.01000000	          0.01000000	          0.19350209	          0.15552856	          0.00999999	
          0.07203304	         -6.37419617	         -3.99476567	          7.85586821	          0.08796690	          0.93765454	         -0.01271182	         29.09303185	          1.60850763	         -4.30597957	        -10.34819705	          2.87814881	          0.08687466	        -10.01902252	         -4.53026602	          2.75084951	        -18.33040073	          9.19271100	         35.79317312	         -2.20106937	          4.37637716	         -2.68092104	          0.07036264	          0.05052482	          0.00999999	          0.13345478	          0.13798993	          0.05310341	          0.05689909	          0.09687160	          0.02932926	          0.01000000	          0.11760675	          0.01000000	          0.01000000	          0.39944534	          0.13226167	          0.00999999	          0.01000000	          0.01885524	          0.09463027	          0.03643932	          0.04383185	          0.01907131	          0.31709480	          0.00999999	          0.00999999	          0.15603622	          0.12541512	          0.00999999	
